<svg width="183" height="36" viewBox="0 0 183 36" fill="none" xmlns="http://www.w3.org/2000/svg">
<g clip-path="url(#clip0_8011_1580)">
<path d="M59.3396 31.1318C56.7272 31.1318 54.4177 30.6126 52.4113 29.5744C50.4049 28.5123 48.8537 27.0136 47.7574 25.0784C46.661 23.143 46.1128 20.8655 46.1128 18.2458C46.1128 15.6261 46.661 13.3485 47.7574 11.4133C48.8537 9.4544 50.4049 7.95577 52.4113 6.91732C54.4177 5.85526 56.7272 5.32422 59.3396 5.32422C61.1127 5.32422 62.6757 5.51305 64.0287 5.89067C65.4052 6.2447 66.6648 6.81109 67.8076 7.58995V12.7232C66.7814 11.8735 65.6035 11.2599 64.2738 10.8823C62.9674 10.481 61.4746 10.2805 59.7949 10.2805C58.2319 10.2805 56.8201 10.6109 55.5605 11.2717C54.3243 11.9089 53.3446 12.8293 52.6214 14.0331C51.8982 15.2366 51.5363 16.6409 51.5363 18.2458C51.5363 19.8743 51.8631 21.3022 52.5161 22.5293C53.1929 23.733 54.1375 24.6653 55.3505 25.3261C56.5636 25.987 57.9635 26.3173 59.5496 26.3173C60.996 26.3173 62.2556 26.0577 63.3287 25.5386V20.7593H59.3747V16.7944H68.4725V28.7248C66.163 30.3296 63.1191 31.1318 59.3396 31.1318Z" fill="#060E28"/>
<path d="M69.7017 13.6081H74.8104V16.0508C75.4871 15.2248 76.4317 14.5994 77.6447 14.1746C78.8578 13.7262 80.2345 13.502 81.7737 13.502V17.5731C80.1642 17.5731 78.7412 17.8208 77.5048 18.3166C76.2919 18.8121 75.452 19.5674 74.9853 20.5823V30.601H69.7017V13.6081Z" fill="#060E28"/>
<path d="M91.9281 31.1327C88.7087 31.1327 86.1773 30.3541 84.3344 28.7962C82.4917 27.2152 81.5703 25.0084 81.5703 22.1764C81.5703 19.3678 82.3869 17.1494 84.0196 15.5209C85.676 13.8924 88.0319 13.0781 91.0883 13.0781C93.0942 13.0781 94.7971 13.4558 96.197 14.2109C97.5964 14.9662 98.6582 16.0164 99.3814 17.3616C100.105 18.6834 100.466 20.182 100.466 21.8577V24.0173H86.6093C86.9826 26.1885 88.9884 27.2741 92.6276 27.2741C93.7007 27.2741 94.8089 27.1798 95.9518 26.991C97.0952 26.8021 98.0867 26.5424 98.9267 26.2121V29.9645C98.1101 30.3186 97.0601 30.6021 95.7769 30.8141C94.4941 31.0267 93.2108 31.1327 91.9281 31.1327ZM95.4619 20.5479C95.3923 19.4149 94.972 18.5417 94.2025 17.9281C93.4328 17.2909 92.371 16.9723 91.0181 16.9723C89.6884 16.9723 88.6385 17.2909 87.8688 17.9281C87.0992 18.5653 86.679 19.4385 86.6093 20.5479H95.4619Z" fill="#060E28"/>
<path d="M111.296 31.1327C108.077 31.1327 105.546 30.3541 103.703 28.7962C101.86 27.2152 100.938 25.0084 100.938 22.1764C100.938 19.3678 101.755 17.1494 103.388 15.5209C105.044 13.8924 107.4 13.0781 110.456 13.0781C112.462 13.0781 114.165 13.4558 115.565 14.2109C116.965 14.9662 118.026 16.0164 118.749 17.3616C119.472 18.6834 119.834 20.182 119.834 21.8577V24.0173H105.977C106.35 26.1885 108.357 27.2741 111.996 27.2741C113.069 27.2741 114.177 27.1798 115.32 26.991C116.463 26.8021 117.455 26.5424 118.294 26.2121V29.9645C117.478 30.3186 116.428 30.6021 115.145 30.8141C113.862 31.0267 112.579 31.1327 111.296 31.1327ZM114.83 20.5479C114.76 19.4149 114.34 18.5417 113.571 17.9281C112.801 17.2909 111.739 16.9723 110.386 16.9723C109.057 16.9723 108.007 17.2909 107.237 17.9281C106.467 18.5653 106.047 19.4385 105.977 20.5479H114.83Z" fill="#060E28"/>
<path d="M121.008 13.6092H126.117V15.6979C126.887 14.8247 127.796 14.1755 128.846 13.7507C129.919 13.3023 131.039 13.0781 132.205 13.0781C134.492 13.0781 136.195 13.7035 137.314 14.9544C138.457 16.1817 139.029 17.8455 139.029 19.946V30.6021H133.745V20.5479C133.745 18.3529 132.742 17.2555 130.735 17.2555C129.848 17.2555 129.021 17.4797 128.251 17.9281C127.481 18.3529 126.828 18.9903 126.291 19.8398V30.6021H121.008V13.6092Z" fill="#060E28"/>
<path d="M143.691 10.9889C142.875 10.9889 142.187 10.7175 141.627 10.1747C141.065 9.63189 140.786 8.94745 140.786 8.1214C140.786 7.319 141.065 6.64637 141.627 6.10352C142.187 5.53711 142.875 5.25391 143.691 5.25391C144.507 5.25391 145.195 5.53711 145.755 6.10352C146.315 6.64637 146.594 7.319 146.594 8.1214C146.594 8.94745 146.315 9.63189 145.755 10.1747C145.195 10.7175 144.507 10.9889 143.691 10.9889ZM141.031 13.6087H146.35V30.6016H141.031V13.6087Z" fill="#060E28"/>
<path d="M155.359 31.1327C154.1 31.1327 152.748 30.9912 151.301 30.7081C149.878 30.4486 148.758 30.0711 147.942 29.5754V25.3978C148.874 25.9643 149.994 26.4245 151.301 26.7786C152.607 27.1326 153.82 27.3095 154.94 27.3095C155.896 27.3095 156.597 27.227 157.039 27.0617C157.483 26.8965 157.704 26.5897 157.704 26.1413C157.704 25.7873 157.576 25.5041 157.32 25.2917C157.064 25.0557 156.666 24.855 156.129 24.6899C155.617 24.501 154.753 24.2295 153.54 23.8756C152.118 23.4508 150.998 23.026 150.181 22.6012C149.388 22.1526 148.781 21.5981 148.362 20.9373C147.965 20.2765 147.766 19.4267 147.766 18.3883C147.766 16.6183 148.454 15.2967 149.832 14.4234C151.231 13.5265 153.121 13.0781 155.5 13.0781C156.666 13.0781 157.868 13.208 159.105 13.4675C160.364 13.7035 161.332 14.0222 162.008 14.4234V18.4946C161.332 18.0462 160.446 17.6803 159.349 17.3971C158.276 17.1138 157.226 16.9723 156.2 16.9723C155.243 16.9723 154.497 17.0667 153.96 17.2555C153.448 17.4443 153.19 17.7984 153.19 18.3175C153.19 18.7659 153.436 19.1082 153.926 19.3442C154.438 19.5802 155.384 19.8753 156.76 20.2292L157.459 20.4062C158.929 20.8074 160.072 21.2558 160.888 21.7515C161.706 22.2235 162.277 22.8018 162.604 23.4862C162.954 24.147 163.128 24.9848 163.128 25.9997C163.128 27.5576 162.463 28.8083 161.134 29.7525C159.804 30.6726 157.88 31.1327 155.359 31.1327Z" fill="#060E28"/>
<path d="M164.351 4.43945H169.634V15.5556C170.428 14.7296 171.327 14.1159 172.329 13.7147C173.332 13.2899 174.406 13.0774 175.549 13.0774C177.835 13.0774 179.538 13.7029 180.657 14.9538C181.8 16.181 182.372 17.8449 182.372 19.9454V30.6014H177.089V20.5472C177.089 18.3523 176.084 17.2548 174.079 17.2548C173.192 17.2548 172.365 17.479 171.595 17.9274C170.824 18.3523 170.171 18.9895 169.634 19.8391V30.6014H164.351V4.43945Z" fill="#060E28"/>
<path fill-rule="evenodd" clip-rule="evenodd" d="M28.0679 9.44898C28.0679 13.9458 24.4649 17.5913 20.02 17.5913C15.575 17.5913 11.9718 13.9458 11.9718 9.44898C11.9718 4.95209 15.575 1.30664 20.02 1.30664C24.4649 1.30664 28.0679 4.95209 28.0679 9.44898ZM1.29921 16.9996C10.0675 16.4017 17.7094 23.0433 18.4212 31.9332C18.495 32.8544 18.4914 33.7635 18.4162 34.655C9.64778 35.2529 2.00592 28.6112 1.2941 19.7215C1.22039 18.8004 1.2239 17.8909 1.29921 16.9996ZM24.0893 34.3437C32.8763 33.6235 39.4411 25.8922 38.8501 17.0213C37.969 16.9452 37.0703 16.9417 36.1597 17.0162C27.3727 17.7364 20.8079 25.4675 21.399 34.3384C22.2799 34.4147 23.1788 34.4184 24.0893 34.3437Z" fill="#060E28"/>
</g>
<defs>
<clipPath id="clip0_8011_1580">
<rect width="181.951" height="35.3793" fill="white" transform="translate(0.918945 0.0234375)"/>
</clipPath>
</defs>
</svg>
